<svg data-v-423bf9ae="" xmlns="http://www.w3.org/2000/svg" viewBox="0 0 69.97952300321502 60" class="icon"><!----><!----><!----><!----><g data-v-423bf9ae="" id="fe0e8301-1745-4fec-bbe6-e47690206722" transform="matrix(0.7405732598578447,0,0,0.7405732598578447,-1.9786280957718603,-7.033140717413396)" stroke="none" fill="black"><switch><g><path d="M96.1 17.3c-3.1 3.1-10.6 8.1-22.5 5.4-6.4-1.4-12.4-1.5-16.2-1.4-.1 0-.2-.1-.2-.2.3-3.2.1-7.1-1.3-11.1-.2-.6-1.1-.7-1.4-.1-1.7 3.5-6.4 11.9-13.4 15.2-2.1 1-3.9 2.4-5.2 4.2-1.4 1.9-3.3 4-5.9 6-3.3 2.5-6.6 3.8-9.2 4.6-1.9.6-2.7 2.8-1.6 4.4 1.5 2.3 4 5 7.6 6.2.2.1.3-.1.3-.3-.3-.9-1-2.9-.9-4.3 0-.2.2-.3.4-.1.7.6 2.5 1.9 5.7 1.9.2 0 .3-.3.1-.4-.7-.6-1.8-1.7-2-3.2 0-.2.2-.3.3-.2.8.5 2.6 1.6 5.3 1.6.2 0 .3-.3.1-.4-.7-.5-1.7-1.4-1.6-3.3 0-.1.1-.2.2-.2.9-.1 5-.4 8.9.8.2.1.2.3 0 .4-.8.4-1.7.8-2.6 1.3-2.3 1.3-4 2.7-5.4 4-.4.3-1.1.8-2.1 1.1-1.2.3-2.3.1-3-.2-.2-.1-.4.1-.3.3.3.5.9 1.3 1.6 1.6 1.1.5-1.3 1.2-3.2.8-1.4-.2-2.8-.8-3.4-1-.2-.1-.4.1-.3.3.4 1.1 1.5 3.9 4.6 5 .3.1.5.2.8.2 2.4.5 5-.7 6.1-2.9 0-.1.1-.2.1-.3 0 0 1-1.9 3.2-3.6 2.3-1.8 6.9-3.3 12.6-3.3h.1c2.9 1.7 4.9 5.1 4.5 8.5-.3 2-1.3 3.7-2.3 5.3-3 4.8-10.1 6-15.2 7.5-4.3 1.2-8.7 2.3-13.1 3-3.6.6-7.1 1.1-10.5 2.7-4.5 2.3-8.2 5.9-10.7 10.3-1 1.8-1.8 3.8-2.4 5.8-.2.9.7 1.6 1.5 1.2 9.9-5.6 16.2-3.7 33.5-3C53 87.9 60 80.5 61.9 78c.1-.2.5 0 .4.2-.9 3.2-4 7.5-5.8 9.8-.4.5.1 1.2.7 1 9-3.6 14.3-17.7 15.6-21.5.1-.2.4-.2.4.1.3 4.3-1.5 9.3-2.9 12.6-.3.6.5 1.1.9.6 15.1-17.7 5.7-32 3.2-35.2-.1-.2.1-.4.3-.3 3.9 1.8 7 6.4 8.6 9.4.4.6 1.3.4 1.3-.4-.1-2.5-.6-5.1-1.6-7.4-.8-1.7-1.8-3.2-3.2-4.5-1.4-1.4-3.1-2.4-4.9-3.3-1.2-.6-2.4-1.3-3.6-2.1-.6-.4-1.2-.8-1.7-1.2-.4-.3-.9-.6-1.3-.9-.2-.2 0-.4.2-.4.4.1.8.2 1.1.3.6.2 1.1.3 1.6.5 1.1.4 2.1.8 3.2 1.1 1.2.4 2.4.7 3.6 1 8.5 2.1 13.4-.4 15.7-2.3.4-.4.1-1-.5-.9-4.2.9-11.3-.7-16.4-3-4.4-2.2-10.4-3.5-12.8-3.9-.2 0-.2-.4 0-.4 3-.4 7.2.9 9.7 1.4 6.1 1.3 12.6.8 18.8-3.5 2.9-2 4.2-4.8 4.6-6.8.3-.7-.5-1.2-1-.7zM43.7 30l-.2 1c-.2.7-.6 1.4-1.3 1.7L39.5 34c-.8.4-1.4-.6-.8-1.2l3.7-3.5c.6-.6 1.5-.1 1.3.7z"></path></g></switch></g><!----></svg>