<svg data-v-423bf9ae="" xmlns="http://www.w3.org/2000/svg" viewBox="0 0 220 91" class="iconLeftSlogan"><!----><!----><!----><g data-v-423bf9ae="" id="9fba98a0-ea69-4d08-974d-571f28f67790" fill="white" transform="matrix(6.247615854785385,0,0,6.247615854785385,119.56510432164704,-26.91941624445421)"><path d="M4.17 6.96L4.17 7.08L4.17 7.08Q4.19 7.32 4.28 8.19L4.28 8.19L4.28 8.19Q4.44 9.73 4.47 10.07L4.47 10.07L4.61 10.72L4.72 11.38L4.72 11.38Q5.03 10.77 5.01 10.67L5.01 10.67L5.01 10.67Q5.01 10.57 5.25 9.94L5.25 9.94L5.25 9.94Q5.59 9.34 5.68 8.88L5.68 8.88L5.68 8.88Q5.70 8.79 5.84 8.47L5.84 8.47L5.84 8.47Q5.80 8.43 5.91 8.20L5.91 8.20L5.91 8.20Q6.02 7.97 6.08 7.70L6.08 7.70L6.08 7.70Q6.15 7.43 6.15 7.42L6.15 7.42L6.15 7.42Q6.16 7.41 6.17 7.39L6.17 7.39L6.17 7.39Q6.22 7.35 6.29 7.14L6.29 7.14L6.29 7.14Q6.33 6.94 6.33 6.83L6.33 6.83L6.33 6.40L6.33 6.40Q6.33 6.36 6.40 6.10L6.40 6.10L6.38 5.78L6.38 5.78Q6.38 5.45 6.71 4.91L6.71 4.91L6.99 4.68L6.99 4.68Q6.99 4.55 7.20 4.52L7.20 4.52L7.20 4.52Q7.42 4.49 7.59 4.55L7.59 4.55L7.59 4.55Q7.76 4.61 7.81 4.61L7.81 4.61L7.81 4.61Q7.87 4.66 8.22 4.75L8.22 4.75L8.22 4.75Q8.39 4.80 8.44 4.96L8.44 4.96L8.44 4.96Q8.48 5.11 8.48 5.38L8.48 5.38L8.39 6.47L8.39 6.47Q8.39 6.57 8.30 7.83L8.30 7.83L8.32 8.27L8.32 8.27Q8.30 8.30 8.30 8.75L8.30 8.75L8.30 9.48L8.30 9.48Q8.30 9.69 8.30 9.74L8.30 9.74L8.34 10.28L8.34 10.28Q8.29 10.28 8.51 11.52L8.51 11.52L8.51 11.52Q8.51 11.72 8.66 12.37L8.66 12.37L8.66 12.37Q8.81 13.02 8.74 13.45L8.74 13.45L8.74 13.45Q8.74 13.68 8.33 13.86L8.33 13.86L8.33 13.86Q8.02 13.80 7.95 13.68L7.95 13.68L7.95 13.68Q7.83 13.61 7.80 13.57L7.80 13.57L7.69 13.43L7.69 13.43Q7.46 13.24 7.32 12.99L7.32 12.99L7.32 12.99Q7.22 12.89 7.18 12.71L7.18 12.71L7.18 12.71Q7.04 12.52 7.01 12.22L7.01 12.22L7.01 12.22Q6.99 11.93 6.91 11.81L6.91 11.81L6.91 11.81Q6.83 11.69 6.79 11.58L6.79 11.58L6.79 11.58Q6.64 11.42 6.59 11.02L6.59 11.02L6.59 11.02Q6.55 10.63 6.51 10.33L6.51 10.33L6.51 10.33Q6.51 10.16 6.52 10.08L6.52 10.08L6.52 10.08Q6.48 9.97 6.48 9.91L6.48 9.91L6.48 9.91Q6.47 9.86 6.45 9.79L6.45 9.79L6.40 10.05L6.40 10.05Q6.36 10.12 6.22 10.60L6.22 10.60L5.92 11.51L5.67 12.39L5.67 12.39Q5.60 12.43 5.50 12.73L5.50 12.73L5.50 12.73Q5.38 13.05 5.36 13.08L5.36 13.08L5.36 13.08Q5.33 13.10 5.31 13.16L5.31 13.16L5.31 13.16Q5.19 13.38 5.05 13.52L5.05 13.52L5.05 13.52Q4.68 13.87 4.28 13.73L4.28 13.73L4.28 13.73Q3.88 13.58 3.70 13.16L3.70 13.16L3.70 13.16Q3.60 12.92 3.54 12.85L3.54 12.85L3.54 12.85Q3.53 12.74 3.39 12.46L3.39 12.46L3.39 12.46Q3.29 12.19 3.23 11.79L3.23 11.79L3.23 11.79Q3.16 11.66 3.14 11.35L3.14 11.35L3.14 11.35Q3.07 11.23 3.04 10.99L3.04 10.99L3.04 10.99Q3.01 10.75 2.95 10.53L2.95 10.53L2.95 10.53Q2.88 10.29 2.86 9.95L2.86 9.95L2.86 9.95Q2.83 9.70 2.65 9.03L2.65 9.03L2.65 9.03Q2.60 8.99 2.53 8.75L2.53 8.75L2.53 8.75Q2.51 8.97 2.51 8.99L2.51 8.99L2.51 8.99Q2.51 9.02 2.39 9.69L2.39 9.69L2.39 9.69Q2.42 9.72 2.38 10.11L2.38 10.11L2.38 10.11Q2.30 10.37 2.28 10.67L2.28 10.67L2.28 10.67Q2.17 11.42 2.18 11.80L2.18 11.80L2.18 11.80Q2.23 11.93 2.19 12.10L2.19 12.10L2.19 12.10Q2.16 12.28 2.14 12.45L2.14 12.45L2.14 12.45Q2.11 12.63 2.07 12.77L2.07 12.77L2.07 12.87L2.07 12.87Q2.03 13.30 2.06 13.36L2.06 13.36L2.06 13.36Q2.06 13.51 1.94 13.73L1.94 13.73L1.94 13.73Q1.82 13.96 1.57 13.90L1.57 13.90L1.57 13.90Q1.12 13.79 1.05 13.73L1.05 13.73L1.05 13.73Q0.90 13.48 0.90 13.29L0.90 13.29L0.90 12.61L0.92 12.36L0.92 12.36Q0.91 12.32 0.94 12.04L0.94 12.04L0.94 12.04Q0.92 12.03 0.92 11.81L0.92 11.81L0.92 11.81Q0.92 11.59 0.88 11.48L0.88 11.48L0.88 11.34L0.88 11.34Q0.85 10.86 0.88 10.79L0.88 10.79L0.88 10.79Q0.90 10.71 0.87 10.44L0.87 10.44L0.87 10.44Q0.92 10.44 0.94 10.23L0.94 10.23L0.94 10.23Q0.95 10.01 0.98 9.76L0.98 9.76L1.08 9.72L1.08 9.72Q1.05 9.70 1.06 9.32L1.06 9.32L1.06 9.32Q1.08 9.23 1.13 8.82L1.13 8.82L1.13 8.82Q1.19 8.41 1.18 8.27L1.18 8.27L1.18 8.27Q1.18 8.12 1.33 7.80L1.33 7.80L1.33 7.80Q1.62 6.92 1.65 6.68L1.65 6.68L1.65 6.68Q1.67 6.44 1.72 6.26L1.72 6.26L1.72 6.26Q1.78 5.80 1.99 5.49L1.99 5.49L1.99 5.49Q2.09 5.18 2.35 5.12L2.35 5.12L2.52 5.00L2.53 5.00L2.53 5.00Q2.80 4.80 3.49 4.94L3.49 4.94L3.49 4.94Q4.07 5.21 4.13 5.60L4.13 5.60L4.13 5.60Q4.07 5.80 4.17 6.96L4.17 6.96ZM13.41 7.77L13.51 7.64L13.73 7.17L13.73 7.17Q13.80 6.97 13.80 6.86L13.80 6.86L13.80 6.86Q13.79 6.75 13.79 6.68L13.79 6.68L13.79 6.68Q13.79 6.61 13.78 6.50L13.78 6.50L13.78 6.50Q13.76 6.40 13.69 6.29L13.69 6.29L13.69 6.29Q13.61 6.19 13.53 6.15L13.53 6.15L13.53 6.15Q13.45 6.12 13.24 6.03L13.24 6.03L12.94 6.02L12.94 6.02Q12.52 5.94 12.22 6.09L12.22 6.09L12.22 6.09Q12.22 6.40 12.07 7.38L12.07 7.38L11.98 8.34L11.91 8.85L11.91 8.85Q12.01 8.85 12.42 8.69L12.42 8.69L12.61 8.53L12.61 8.53Q12.67 8.51 12.96 8.22L12.96 8.22L12.96 8.22Q13.03 8.19 13.12 8.08L13.12 8.08L13.26 7.91L13.26 7.91Q13.30 7.92 13.41 7.77L13.41 7.77ZM11.89 11.38L11.89 11.38L11.91 11.72L11.91 11.72Q11.97 11.84 11.91 12.08L11.91 12.08L11.91 12.08Q11.86 12.32 11.90 12.45L11.90 12.45L11.90 12.45Q11.90 12.68 11.91 12.73L11.91 12.73L11.91 12.73Q12.04 12.73 12.30 12.61L12.30 12.61L12.30 12.61Q12.56 12.50 12.63 12.49L12.63 12.49L12.63 12.49Q12.70 12.47 12.81 12.38L12.81 12.38L12.81 12.38Q13.16 12.19 13.54 11.96L13.54 11.96L13.86 11.66L13.86 11.66Q14.27 11.17 14.42 10.95L14.42 10.95L14.50 10.70L14.50 10.70Q14.69 10.30 14.15 9.95L14.15 9.95L14.15 9.95Q14.04 9.79 13.69 9.73L13.69 9.73L13.68 9.73L13.68 9.73Q13.19 9.59 13.10 9.62L13.10 9.62L12.49 9.76L12.49 9.76Q12.32 9.84 12.19 9.84L12.19 9.84L12.19 9.84Q12.05 9.84 11.90 9.72L11.90 9.72L11.91 10.11L11.91 10.11Q11.82 10.37 11.86 10.63L11.86 10.63L11.86 10.63Q11.91 10.88 11.89 11.38ZM12.50 13.87L12.50 13.87L12.38 13.87L12.38 13.87Q12.24 13.90 11.83 13.83L11.83 13.83L11.83 13.83Q11.12 13.72 10.68 13.38L10.68 13.38L10.68 13.38Q10.56 13.27 10.40 13.08L10.40 13.08L10.40 13.08Q10.23 12.89 10.23 12.82L10.23 12.82L10.23 12.82Q10.23 12.75 10.24 12.64L10.24 12.64L10.24 12.64Q10.25 12.53 10.22 12.42L10.22 12.42L10.22 12.31L10.22 12.31Q10.18 12.22 10.23 12.00L10.23 12.00L10.23 12.00Q10.29 11.79 10.26 11.65L10.26 11.65L10.26 11.65Q10.23 11.47 10.22 11.26L10.22 11.26L10.22 11.26Q10.18 11.20 10.26 10.95L10.26 10.95L10.26 10.95Q10.37 9.06 10.37 8.88L10.37 8.88L10.44 8.46L10.44 8.46Q10.37 8.04 10.47 7.73L10.47 7.73L10.47 7.42L10.47 7.42Q10.46 7.22 10.58 6.29L10.58 6.29L10.58 6.29Q10.53 6.12 10.21 5.85L10.21 5.85L10.21 5.85Q10.14 5.78 10.07 5.63L10.07 5.63L10.07 5.63Q10.00 5.49 10.12 5.17L10.12 5.17L10.12 5.17Q10.21 5.05 10.61 4.80L10.61 4.80L10.61 4.80Q10.64 4.72 11.37 4.48L11.37 4.48L11.63 4.37L11.63 4.37Q11.83 4.30 12.42 4.31L12.42 4.31L12.42 4.31Q12.74 4.35 12.94 4.44L12.94 4.44L12.94 4.44Q13.65 4.79 14.25 5.24L14.25 5.24L14.25 5.24Q14.43 5.32 14.50 5.46L14.50 5.46L14.50 5.46Q14.76 5.63 14.97 6.00L14.97 6.00L14.97 6.00Q15.19 6.37 15.22 6.47L15.22 6.47L15.22 6.47Q15.29 6.92 15.08 7.55L15.08 7.55L15.08 7.55Q14.98 7.87 14.15 8.89L14.15 8.89L14.15 8.89Q14.29 8.93 14.63 9.13L14.63 9.13L14.63 9.13Q14.67 9.18 14.92 9.32L14.92 9.32L14.92 9.32Q14.95 9.37 15.00 9.42L15.00 9.42L15.00 9.42Q15.05 9.48 15.08 9.52L15.08 9.52L15.19 9.59L15.33 9.80L15.54 9.98L15.54 9.98Q15.68 10.12 15.76 10.29L15.76 10.29L15.76 10.29Q15.97 10.49 15.99 10.61L15.99 10.61L16.02 10.88L16.02 10.88Q16.00 11.03 15.60 11.89L15.60 11.89L15.60 11.89Q15.44 12.19 15.20 12.36L15.20 12.36L14.99 12.61L14.99 12.61Q14.91 12.73 14.68 12.89L14.68 12.89L14.68 12.89Q14.45 13.06 14.29 13.22L14.29 13.22L14.29 13.22Q14.22 13.24 14.08 13.34L14.08 13.34L14.08 13.34Q13.93 13.44 13.64 13.58L13.64 13.58L13.64 13.58Q13.36 13.72 13.26 13.75L13.26 13.75L13.26 13.75Q12.98 13.83 12.50 13.87Z"></path></g><!----><g data-v-423bf9ae="" id="9f5a613e-c987-41fe-b859-ba8390875225" transform="matrix(1.1108598897867672,0,0,1.1108598897867672,-2.780832434871783,-10.052823869088847)" stroke="none" fill="white"><switch><g><path d="M96.1 17.3c-3.1 3.1-10.6 8.1-22.5 5.4-6.4-1.4-12.4-1.5-16.2-1.4-.1 0-.2-.1-.2-.2.3-3.2.1-7.1-1.3-11.1-.2-.6-1.1-.7-1.4-.1-1.7 3.5-6.4 11.9-13.4 15.2-2.1 1-3.9 2.4-5.2 4.2-1.4 1.9-3.3 4-5.9 6-3.3 2.5-6.6 3.8-9.2 4.6-1.9.6-2.7 2.8-1.6 4.4 1.5 2.3 4 5 7.6 6.2.2.1.3-.1.3-.3-.3-.9-1-2.9-.9-4.3 0-.2.2-.3.4-.1.7.6 2.5 1.9 5.7 1.9.2 0 .3-.3.1-.4-.7-.6-1.8-1.7-2-3.2 0-.2.2-.3.3-.2.8.5 2.6 1.6 5.3 1.6.2 0 .3-.3.1-.4-.7-.5-1.7-1.4-1.6-3.3 0-.1.1-.2.2-.2.9-.1 5-.4 8.9.8.2.1.2.3 0 .4-.8.4-1.7.8-2.6 1.3-2.3 1.3-4 2.7-5.4 4-.4.3-1.1.8-2.1 1.1-1.2.3-2.3.1-3-.2-.2-.1-.4.1-.3.3.3.5.9 1.3 1.6 1.6 1.1.5-1.3 1.2-3.2.8-1.4-.2-2.8-.8-3.4-1-.2-.1-.4.1-.3.3.4 1.1 1.5 3.9 4.6 5 .3.1.5.2.8.2 2.4.5 5-.7 6.1-2.9 0-.1.1-.2.1-.3 0 0 1-1.9 3.2-3.6 2.3-1.8 6.9-3.3 12.6-3.3h.1c2.9 1.7 4.9 5.1 4.5 8.5-.3 2-1.3 3.7-2.3 5.3-3 4.8-10.1 6-15.2 7.5-4.3 1.2-8.7 2.3-13.1 3-3.6.6-7.1 1.1-10.5 2.7-4.5 2.3-8.2 5.9-10.7 10.3-1 1.8-1.8 3.8-2.4 5.8-.2.9.7 1.6 1.5 1.2 9.9-5.6 16.2-3.7 33.5-3C53 87.9 60 80.5 61.9 78c.1-.2.5 0 .4.2-.9 3.2-4 7.5-5.8 9.8-.4.5.1 1.2.7 1 9-3.6 14.3-17.7 15.6-21.5.1-.2.4-.2.4.1.3 4.3-1.5 9.3-2.9 12.6-.3.6.5 1.1.9.6 15.1-17.7 5.7-32 3.2-35.2-.1-.2.1-.4.3-.3 3.9 1.8 7 6.4 8.6 9.4.4.6 1.3.4 1.3-.4-.1-2.5-.6-5.1-1.6-7.4-.8-1.7-1.8-3.2-3.2-4.5-1.4-1.4-3.1-2.4-4.9-3.3-1.2-.6-2.4-1.3-3.6-2.1-.6-.4-1.2-.8-1.7-1.2-.4-.3-.9-.6-1.3-.9-.2-.2 0-.4.2-.4.4.1.8.2 1.1.3.6.2 1.1.3 1.6.5 1.1.4 2.1.8 3.2 1.1 1.2.4 2.4.7 3.6 1 8.5 2.1 13.4-.4 15.7-2.3.4-.4.1-1-.5-.9-4.2.9-11.3-.7-16.4-3-4.4-2.2-10.4-3.5-12.8-3.9-.2 0-.2-.4 0-.4 3-.4 7.2.9 9.7 1.4 6.1 1.3 12.6.8 18.8-3.5 2.9-2 4.2-4.8 4.6-6.8.3-.7-.5-1.2-1-.7zM43.7 30l-.2 1c-.2.7-.6 1.4-1.3 1.7L39.5 34c-.8.4-1.4-.6-.8-1.2l3.7-3.5c.6-.6 1.5-.1 1.3.7z"></path></g></switch></g><!----><g data-v-423bf9ae="" id="ca570f26-6176-4e95-b175-da7428b275c6" fill="white" transform="matrix(60.11595129257642,0,0,60.11595129257642,70.26377138742599,-653.5763366528107)"><path d="M1.54 11.87L1.54 11.87Q1.82 11.87 2.00 12.05L2.00 12.05L2.00 12.05Q2.17 12.22 2.17 12.50L2.17 12.50L2.17 12.50Q2.17 12.78 2.00 12.96L2.00 12.96L2.00 12.96Q1.82 13.13 1.54 13.13L1.54 13.13L1.54 13.13Q1.26 13.13 1.08 12.96L1.08 12.96L1.08 12.96Q0.91 12.78 0.91 12.50L0.91 12.50L0.91 12.50Q0.91 12.22 1.08 12.05L1.08 12.05L1.08 12.05Q1.26 11.87 1.54 11.87L1.54 11.87Z"></path></g></svg>